<svg width="48" height="45" viewBox="0 0 48 45" fill="none" xmlns="http://www.w3.org/2000/svg">
<path d="M48 22.1333C48 9.90813 37.2562 0 24 0C10.7438 0 0 9.90813 0 22.1333C0 34.3585 10.7438 44.2667 24 44.2667C24.1406 44.2667 24.2812 44.2667 24.4219 44.258V27.0355H19.2656V21.4935H24.4219V17.4127C24.4219 12.6834 27.5531 10.107 32.1281 10.107C34.3219 10.107 36.2062 10.254 36.75 10.3231V15.2685H33.6C31.1156 15.2685 30.6281 16.3579 30.6281 17.9574V21.4849H36.5813L35.8031 27.0269H30.6281V43.4107C40.6594 40.7565 48 32.2403 48 22.1333Z" fill="white"/>
</svg>
