<svg width="48" height="45" viewBox="0 0 48 45" fill="none" xmlns="http://www.w3.org/2000/svg">
<path d="M24 0C10.7472 0 0 9.9113 0 22.1333C0 34.3554 10.7472 44.2667 24 44.2667C37.2528 44.2667 48 34.3554 48 22.1333C48 9.9113 37.2528 0 24 0ZM17.0259 33.4594H11.1808V17.242H17.0259V33.4594ZM14.1035 15.0275H14.0654C12.104 15.0275 10.8354 13.7823 10.8354 12.2261C10.8354 10.6347 12.1428 9.42396 14.1423 9.42396C16.1418 9.42396 17.3723 10.6347 17.4104 12.2261C17.4104 13.7823 16.1418 15.0275 14.1035 15.0275ZM38.1021 33.4594H32.2577V24.7835C32.2577 22.6031 31.4114 21.1161 29.2965 21.1161C27.6819 21.1161 26.7202 22.1191 26.2976 23.0874C26.1431 23.4339 26.1053 23.9182 26.1053 24.4029V33.4594H20.2606C20.2606 33.4594 20.3372 18.7635 20.2606 17.242H26.1053V19.5382C26.8821 18.4332 28.2719 16.8614 31.3729 16.8614C35.2185 16.8614 38.1021 19.1792 38.1021 24.1604V33.4594Z" fill="white"/>
</svg>
