<svg width="289" height="327" viewBox="0 0 289 327" fill="none" xmlns="http://www.w3.org/2000/svg">
<path opacity="0.5" d="M53.0464 63.0523L53.5137 127.544L182.964 126.576L182.497 62.085L53.0464 63.0523ZM178.636 122.777L56.8551 123.684L56.8037 116.996L178.585 116.085L178.636 122.777ZM178.562 112.748L56.7804 113.659L56.7336 106.953L178.529 106.056L178.562 112.748ZM178.487 102.719L56.7056 103.631L56.6542 96.9431L178.436 96.0318L178.487 102.719ZM178.412 92.6904L56.6308 93.6017L56.5794 86.9142L178.361 86.0029L178.412 92.6904ZM178.337 82.6521L56.556 83.5868L56.5046 76.8993L178.286 75.988L178.337 82.6521ZM178.263 72.6232L56.4813 73.5345L56.4299 66.847L178.211 65.9358L178.263 72.6232Z" fill="#808080"/>
<path d="M54.4534 62.5572L54.9207 125.647L181.1 124.712L180.632 61.6226L54.4534 62.5572ZM176.866 120.973L58.164 121.861L58.1172 115.319L176.819 114.431L176.866 120.973ZM176.791 111.159L58.0892 112.047L58.0425 105.505L176.744 104.617L176.791 111.159ZM176.716 101.346L58.0144 102.233L57.9677 95.6909L176.669 94.803L176.716 101.346ZM176.641 91.5316L57.9583 92.4663L57.9116 85.9237L176.613 85.0358L176.641 91.5316ZM176.567 81.7177L57.8649 82.6056L57.8181 76.063L176.52 75.1751L176.567 81.7177ZM176.492 71.9038L57.7901 72.7917L57.7434 66.2491L176.445 65.3612L176.492 71.9038Z" fill="#F5F5F5"/>
<path d="M181.334 0.402344H55.1545V63.4918H181.334V0.402344Z" fill="#3DB3F5"/>
<path d="M130.941 191.61H123.791V239.974H130.941V191.61Z" fill="#E0E0E0"/>
<path d="M128.558 196.984H126.174V80.1895L128.525 80.3156L128.558 196.984Z" fill="#E0E0E0"/>
<path opacity="0.5" d="M257.06 189.671L252.718 193.919L241.642 240.255L241.488 240.231L206.56 239.357L190.437 245.732V248.087L239.895 247.564H243.297L245.414 247.106L259.153 190.456L257.06 189.671Z" fill="#F5F5F5"/>
<path d="M255.513 191.073L251.377 195.115L254.12 196.111L257.503 191.82L255.513 191.073Z" fill="#F5F5F5"/>
<path d="M251.377 195.115L254.12 196.11L242.409 246.185H239.17L251.377 195.115Z" fill="#F5F5F5"/>
<path d="M242.409 246.185L244.423 245.75L257.503 191.82L254.12 196.11L242.409 246.185Z" fill="#E0E0E0"/>
<path d="M192.087 244.442V246.685L239.17 246.185L239.937 243.769L192.087 244.442Z" fill="#E0E0E0"/>
<path d="M240.946 239.245L240.684 239.207L207.438 238.375L192.087 244.441L239.918 243.946" fill="#F5F5F5"/>
<path d="M221.524 242.479L222.458 239.675H240.684L239.75 242.946L221.524 242.479Z" fill="#E0E0E0"/>
<path d="M206.102 242.011L212.644 239.675H217.318L214.981 242.011H206.102Z" fill="#6C63FF"/>
<path opacity="0.5" d="M288.819 245.283H146.751V252.76H288.819V245.283Z" fill="#302E98"/>
<path d="M287.884 245.283H149.087V251.358H287.884V245.283Z" fill="#3DB3F5"/>
<path d="M164.042 251.358H157.032V326.598H164.042V251.358Z" fill="#3DB3F5"/>
<path d="M280.875 251.358H273.865V326.598H280.875V251.358Z" fill="#3DB3F5"/>
<path opacity="0.5" d="M10.8467 113.491L12.9357 111.972L11.8047 99.2002L9.35126 93.8633L0 97.4711L10.8467 113.491Z" fill="#FF0000"/>
<path d="M118.571 40.1626L119.922 65.4825L124.642 83.7084C124.642 83.7084 128.38 94.1578 130.983 94.5691C133.586 94.9803 133.619 86.4656 131.778 83.9327C129.937 81.3997 130.843 64.5058 130.843 64.5058L133.82 43.0086L118.571 40.1626Z" fill="#FDA57D"/>
<path d="M117.001 44.4012L117.688 48.5464L136.713 50.1914C136.713 50.1914 140.69 36.4706 134.021 30.4888L117.001 44.4012Z" fill="white"/>
<path d="M74.5623 37.7275C74.5623 37.7275 62.8791 52.0278 63.4118 57.0469L11.4495 93.265L14.1132 99.0645C14.1132 99.0645 51.4435 84.3109 76.8943 68.1367L75.7587 92.1714C75.7587 92.1714 52.5184 111.383 46.4711 121.193L51.1164 128.67L93.7696 94.5548C93.7696 94.5548 106.42 71.436 100.354 58.8181L74.5623 37.7275Z" fill="#3AD29F"/>
<path d="M2.37427 96.7706L11.4498 93.2656L13.8332 98.453L14.9314 110.851L12.9032 112.323L2.37427 96.7706Z" fill="black"/>
<path d="M46.4714 121.188L36.1013 127.179L46.9994 143.241L49.5324 141.395L51.1166 128.642L46.4714 121.188Z" fill="black"/>
<path d="M134.016 30.4842L127.006 15.4783C127.006 15.4783 113.725 -8.13123 74.5112 38.1624L100.355 58.8184L117.09 46.6678L134.016 30.4842Z" fill="white"/>
<path d="M139.549 9.83594L145.802 18.4399L130.605 29.4851C130.064 29.8786 129.388 30.0409 128.727 29.9363C128.066 29.8317 127.474 29.4688 127.08 28.9274L123.783 24.391C123.39 23.8496 123.227 23.1741 123.332 22.513C123.437 21.8519 123.799 21.2595 124.341 20.866L139.538 9.8208L139.549 9.83594Z" fill="#FDA57D"/>
<path opacity="0.05" d="M132.292 15.1044C131.757 17.0337 131.753 19.0714 132.281 21.0027C132.808 22.934 133.847 24.6871 135.287 26.0773L141.746 21.404L135.488 12.7817L132.292 15.1044Z" fill="black"/>
<path d="M150.307 26.7624C155.349 23.0978 156.472 16.0482 152.815 11.0166C149.158 5.98497 142.106 4.87681 137.064 8.54141C132.022 12.206 130.899 19.2557 134.556 24.2873C138.213 29.3189 145.265 30.427 150.307 26.7624Z" fill="#FDA57D"/>
<path opacity="0.05" d="M138.465 11.0103L131.923 15.3658L132.708 13.2488C132.708 13.2488 138.068 -0.705651 150.569 5.30421C159.112 9.40269 160.729 20.3522 160.084 21.5953C159.827 22.0626 158.434 23.1655 156.813 24.2918C155.209 25.4295 153.238 25.9243 151.287 25.6786C149.337 25.4328 147.55 24.4644 146.279 22.9646C144.087 20.3569 140.274 14.9639 140.979 11.8702C140.339 10.7065 139.503 10.2392 138.423 11.0196L138.465 11.0103Z" fill="black"/>
<path d="M138.97 10.6416L132.427 14.9972L133.212 12.8802C133.212 12.8802 138.572 -1.0743 151.073 4.93555C159.616 9.03403 161.233 19.9836 160.588 21.2267C160.331 21.694 158.939 22.7969 157.317 23.9232C155.714 25.0608 153.742 25.5557 151.792 25.3099C149.841 25.0642 148.054 24.0957 146.783 22.5959C144.592 19.9882 140.778 14.5953 141.484 11.5015C140.844 10.3379 140.007 9.87055 138.928 10.651L138.97 10.6416Z" fill="#5A2F32"/>
<path d="M140.509 12.2271C141.63 11.4122 142.21 10.298 141.803 9.73851C141.396 9.17898 140.158 9.38597 139.037 10.2008C137.915 11.0157 137.336 12.1299 137.743 12.6894C138.15 13.2489 139.388 13.0419 140.509 12.2271Z" fill="#FDA57D"/>
<path opacity="0.05" d="M114.902 46.3126L117.888 43.7563L117.926 47.7941L117.271 46.2379L114.902 46.3126Z" fill="black"/>
<path opacity="0.05" d="M119.001 48.7476L119.066 49.3691L132.787 50.4393L132.871 49.8551L119.001 48.7476Z" fill="black"/>
<path opacity="0.05" d="M68.2396 46.3452C66.146 49.4997 64.2066 52.8878 63.6084 55.3273L65.2347 54.1917C65.0151 52.4018 66.3703 49.4296 68.2396 46.3452Z" fill="black"/>
<path opacity="0.05" d="M77.5583 89.3116L78.6939 65.2769C53.2478 81.4511 15.8988 96.2047 15.8988 96.2047L14.0996 99.0601C14.0996 99.0601 51.4299 84.3065 76.8807 68.1322L75.8105 90.765C76.918 89.8397 77.5583 89.3116 77.5583 89.3116Z" fill="black"/>
<path d="M97.6812 30.6011L99.0317 55.921L103.752 74.1468C103.752 74.1468 107.49 84.5963 110.093 85.0076C112.696 85.4188 112.729 76.9041 110.888 74.3712C109.047 71.8382 109.953 54.9443 109.953 54.9443L112.93 33.4471L97.6812 30.6011Z" fill="#FDA57D"/>
<path opacity="0.05" d="M99.1814 18.2822C99.1814 18.2822 96.0362 26.7549 97.3728 29.657L99.1814 18.2822Z" fill="black"/>
<path opacity="0.05" d="M97.7418 30.1616L97.7324 31.7365L112.804 34.2694L112.986 33.0077L97.7418 30.1616Z" fill="black"/>
<path d="M101.144 17.2446L97.6719 30.6009L112.916 33.4422L116.945 16.5903L101.144 17.2446Z" fill="white"/>
<path d="M100.864 63.492L103.757 74.6144C103.757 74.6144 107.495 85.0639 110.098 85.4752C112.701 85.8864 112.734 77.3717 110.893 74.8387C109.925 73.5068 109.715 68.2167 109.734 63.4873L100.864 63.492Z" fill="#FDA57D"/>
<path opacity="0.5" d="M131.385 63.0244H119.379L119.543 66.034L124.539 84.7926C124.539 84.7926 128.474 95.5412 131.254 95.9711C134.035 96.4011 134.058 87.6293 132.095 85.0263C130.133 82.4233 131.095 65.0339 131.095 65.0339L131.385 63.0244Z" fill="#808080" fill-opacity="0.17"/>
<path d="M131.114 63.0244H119.768L119.922 65.9499L124.642 84.1758C124.642 84.1758 128.38 94.6252 130.983 95.0365C133.587 95.4477 133.619 86.933 131.778 84.4001C129.937 81.8671 130.843 64.9732 130.843 64.9732L131.114 63.0244Z" fill="#FDA57D"/>
<path d="M117.427 58.4787L110.649 56.2017L95.2466 102.048L102.024 104.325L117.427 58.4787Z" fill="#E0E0E0"/>
<path d="M126.189 80.3155L115.431 64.4216L116.562 61.0615L128.525 80.3155H126.189Z" fill="#E0E0E0"/>
<path d="M158.425 209.607L150.85 202.588L163.388 188.993L170.963 196.012L158.425 209.607Z" fill="#FDA57D"/>
<path opacity="0.05" d="M162.79 189.591L157.257 195.592C157.853 197.279 158.821 198.81 160.088 200.072C161.356 201.335 162.891 202.297 164.58 202.887L170.37 196.611L162.79 189.591Z" fill="black"/>
<path d="M164.416 221.365L194.792 234.45L217.224 207.864C217.224 207.864 220.622 204.064 216.575 201.466C212.528 198.868 209.985 205.593 209.985 205.593L192.732 224.071L170.585 212.972L164.416 221.365Z" fill="#FDA57D"/>
<path d="M162.823 206.242L178.319 215.196L176.235 229.23L161.631 217.589L162.823 206.242Z" fill="#3AD29F"/>
<path d="M169.08 202.957C175.662 202.957 180.997 197.611 180.997 191.017C180.997 184.423 175.662 179.077 169.08 179.077C162.498 179.077 157.163 184.423 157.163 191.017C157.163 197.611 162.498 202.957 169.08 202.957Z" fill="#FDA57D"/>
<path d="M159.247 201.466L153.294 199.672L113.365 205.644L113.664 232.815C113.664 232.815 162.234 230.726 167.599 218.187L164.024 205.649L159.247 201.466Z" fill="#3AD29F"/>
<path opacity="0.05" d="M162.094 217.954L176.235 229.23L176.828 224.454L162.823 211.019L162.094 217.954Z" fill="black"/>
<path d="M113.659 205.943C113.659 205.943 108.294 201.167 91.0125 205.943C73.7307 210.719 21.2869 199.377 21.2869 199.377L19.4971 209.527C19.4971 209.527 49.294 223.86 71.3426 220.874C79.9274 219.71 88.2272 223.342 95.1764 224.459C101.286 225.481 107.458 226.079 113.65 226.248L113.659 205.943Z" fill="#4D8AF0"/>
<path d="M21.2871 199.372L12.9453 196.386L6.98218 217.29C6.98218 217.29 13.5248 210.126 19.4973 209.528L21.2871 199.372Z" fill="black"/>
<path d="M41.5459 173.104L54.061 170.118C54.061 170.118 60.0194 205.943 68.9594 208.929H46.9108C46.9108 208.929 45.121 174.296 41.5459 173.104Z" fill="#4D8AF0"/>
<path d="M54.0607 170.118L52.2708 162.355L29.0305 167.706C29.0305 167.706 39.7791 170.094 41.5456 173.081L54.0607 170.118Z" fill="black"/>
<path opacity="0.05" d="M170.977 177.211C167.818 176.964 164.561 177.179 161.631 178.384C158.701 179.59 156.116 181.88 155.046 184.871C153.976 187.862 154.667 191.535 157.084 193.596C157.661 194.131 158.398 194.459 159.182 194.53C160.448 194.582 161.518 193.652 162.491 192.843C164.316 191.335 166.326 190.066 168.472 189.067C170.3 188.217 172.529 187.591 174.258 188.628C175.08 189.123 175.66 189.923 176.338 190.6C177.322 191.58 178.534 192.302 179.864 192.703C181.194 193.104 182.603 193.17 183.965 192.897C185.328 192.624 186.602 192.02 187.675 191.138C188.748 190.255 189.588 189.122 190.119 187.838C189.652 188.946 185.404 187.418 184.763 187.077C182.81 186.039 181.801 184.502 180.796 182.618C178.796 178.922 175.118 177.52 170.977 177.211Z" fill="black"/>
<path d="M170.978 176.614C167.818 176.366 164.561 176.581 161.631 177.787C158.701 178.992 156.098 181.259 155.046 184.273C153.995 187.287 154.668 190.937 157.084 192.998C157.661 193.533 158.399 193.862 159.182 193.933C160.449 193.984 161.519 193.054 162.491 192.246C164.316 190.738 166.326 189.469 168.473 188.47C170.3 187.619 172.529 186.993 174.258 188.03C175.081 188.526 175.66 189.325 176.338 190.003C177.323 190.983 178.534 191.705 179.864 192.105C181.195 192.506 182.603 192.573 183.966 192.3C185.328 192.027 186.602 191.422 187.675 190.54C188.749 189.658 189.588 188.524 190.119 187.241C189.652 188.348 185.404 186.82 184.764 186.479C182.81 185.441 181.801 183.904 180.796 182.021C178.796 178.315 175.118 176.936 170.978 176.614Z" fill="black"/>
<path d="M166.078 190.029C166.306 189.067 166.102 188.195 165.623 188.081C165.143 187.968 164.569 188.655 164.341 189.617C164.113 190.579 164.316 191.451 164.796 191.565C165.276 191.678 165.849 190.991 166.078 190.029Z" fill="#FDA57D"/>
<path opacity="0.05" d="M159.789 231.081L160.187 231.571L169.15 227.225L168.757 226.683L159.789 231.081Z" fill="black"/>
<path opacity="0.05" d="M178.09 216.734L176.627 226.543L177.17 226.852L178.319 216.846L178.09 216.734Z" fill="black"/>
<path d="M155.373 225.655L176.23 251.33L208.41 238.194C208.41 238.194 213.182 236.404 210.775 232.198C208.368 227.992 203.027 232.796 203.027 232.796L179.193 241.157L164.706 221.062L155.373 225.655Z" fill="#FDA57D"/>
<path d="M146.751 204.452C146.751 204.452 155.691 231.917 156.883 232.515L170.903 225.65C170.903 225.65 166.93 207.125 162.491 204.298C158.051 201.471 147.33 202.059 146.751 204.452Z" fill="#3AD29F"/>
<path opacity="0.05" d="M149.284 212.159C149.284 212.159 148.817 222.664 151.798 224.454L149.284 212.159Z" fill="black"/>
<path d="M180.831 195.379L179.274 194.345L176.667 198.268L178.224 199.303L180.831 195.379Z" fill="black"/>
<path d="M178.676 195.176L167.153 187.515L166.635 188.293L178.158 195.955L178.676 195.176Z" fill="black"/>
</svg>
