<svg width="50" height="45" viewBox="0 0 50 45" fill="none" xmlns="http://www.w3.org/2000/svg">
<path d="M4.00952 6.48583C-1.9905 10.4858 6.5093 25.4858 15.5125 32.9858C21.5151 38.5858 31.0093 41.9858 35.0093 42.9858C38.2291 43.7908 40.4907 43.5142 42.5 42L46.5093 38.4858C49.5093 35.9858 47.0093 33.1525 45.5093 31.9858L40.5093 27.4858C38.5093 25.4858 36.0093 26.9858 35.0093 27.9858L33.0093 29.9858C31.8093 31.5858 29.8426 30.9858 29.0093 30.4858C21.4093 26.4858 17.5093 20.7358 16.0093 18.4858C15.0093 16.9858 15.3426 15.9858 16.0093 15.4858L18.0093 13.9858C22.5093 10.4858 20.0093 9.48584 19.0093 7.98584L14.0093 2.98582C12.4093 0.985825 9.34261 2.48582 8.00928 3.48582L4.00952 6.48583Z" stroke="white" stroke-width="4"/>
</svg>
