<svg width="48" height="44" viewBox="0 0 48 44" fill="none" xmlns="http://www.w3.org/2000/svg">
<mask id="path-1-inside-1" fill="white">
<path d="M9.72698 29.2482C14.4793 34.436 20.2 38.5205 26.7294 41.4107C29.2154 42.4865 32.54 43.763 36.244 43.9818C36.4737 43.9909 36.6933 44 36.9229 44C39.4089 44 41.4057 43.2159 43.033 41.6022C43.043 41.593 43.063 41.5748 43.073 41.5566C43.652 40.9184 44.311 40.344 44.9999 39.7331C45.4691 39.3228 45.9483 38.8943 46.4076 38.4567C48.5341 36.4327 48.5341 33.8616 46.3876 31.9014L40.3873 26.4219C39.369 25.4554 38.1509 24.9449 36.873 24.9449C35.5951 24.9449 34.3671 25.4554 33.3188 26.4128L29.7446 29.6768C29.4151 29.5035 29.0756 29.3485 28.7562 29.2027C28.3568 29.0203 27.9874 28.8471 27.6579 28.6556C24.4032 26.7683 21.448 24.3067 18.6226 21.143C17.1949 19.4927 16.2364 18.1069 15.5675 16.6937C16.506 15.9188 17.3846 15.1073 18.2332 14.3141C18.5327 14.0315 18.8422 13.7489 19.1517 13.4662C20.23 12.4816 20.809 11.3419 20.809 10.184C20.809 9.02611 20.24 7.88645 19.1517 6.90178L16.1765 4.18483C15.8271 3.86573 15.4976 3.55574 15.1582 3.23663C14.4993 2.61666 13.8104 1.97845 13.1315 1.40406C12.1031 0.483216 10.8951 0 9.61716 0C8.34922 0 7.13119 0.483216 6.06292 1.41318L2.32897 4.82304C0.971166 6.06299 0.202411 7.56734 0.04267 9.30874C-0.147023 11.4878 0.292266 13.8036 1.43042 16.6026C3.17759 20.9333 5.81332 24.954 9.72698 29.2482ZM2.47872 9.50021C2.59853 8.28761 3.10771 7.27559 4.06615 6.40033L7.78014 3.0087C8.3592 2.49814 8.99816 2.23373 9.61716 2.23373C10.2262 2.23373 10.8452 2.49814 11.4143 3.02694C12.0832 3.59221 12.7121 4.18483 13.3911 4.81392C13.7305 5.13303 14.0799 5.45213 14.4294 5.78036L17.4045 8.49731C18.0235 9.06258 18.343 9.63697 18.343 10.2022C18.343 10.7675 18.0235 11.3419 17.4045 11.9072C17.0951 12.1898 16.7856 12.4816 16.4761 12.7642C15.5476 13.6212 14.679 14.4327 13.7205 15.2076C13.7005 15.2259 13.6906 15.235 13.6706 15.2532C12.8419 16.0099 12.9717 16.7302 13.1714 17.2772C13.1814 17.3046 13.1914 17.3228 13.2014 17.3502C13.9701 19.0369 15.0384 20.6415 16.7057 22.5562C19.7008 25.9295 22.8557 28.5462 26.3301 30.5611C26.7594 30.8164 27.2187 31.017 27.648 31.2176C28.0473 31.3999 28.4167 31.5731 28.7462 31.7646C28.7861 31.7828 28.8161 31.8011 28.856 31.8193C29.1855 31.9743 29.5049 32.0472 29.8244 32.0472C30.6231 32.0472 31.1423 31.5823 31.312 31.4273L35.046 28.0174C35.625 27.4886 36.254 27.206 36.873 27.206C37.6318 27.206 38.2508 27.6345 38.6402 28.0174L44.6604 33.506C45.8585 34.6001 45.8485 35.7853 44.6305 36.9432C44.2111 37.3535 43.7718 37.7455 43.3026 38.1558C42.6037 38.7758 41.8749 39.414 41.216 40.1343C40.0678 41.2648 38.7001 41.7936 36.9329 41.7936C36.7632 41.7936 36.5835 41.7845 36.4138 41.7754C33.1391 41.5839 30.094 40.4169 27.8077 39.4231C21.5978 36.6788 16.1466 32.7857 11.6239 27.8442C7.89994 23.7505 5.394 19.9395 3.73669 15.855C2.70835 13.3477 2.31898 11.3328 2.47872 9.50021Z"/>
</mask>
<path d="M9.72698 29.2482C14.4793 34.436 20.2 38.5205 26.7294 41.4107C29.2154 42.4865 32.54 43.763 36.244 43.9818C36.4737 43.9909 36.6933 44 36.9229 44C39.4089 44 41.4057 43.2159 43.033 41.6022C43.043 41.593 43.063 41.5748 43.073 41.5566C43.652 40.9184 44.311 40.344 44.9999 39.7331C45.4691 39.3228 45.9483 38.8943 46.4076 38.4567C48.5341 36.4327 48.5341 33.8616 46.3876 31.9014L40.3873 26.4219C39.369 25.4554 38.1509 24.9449 36.873 24.9449C35.5951 24.9449 34.3671 25.4554 33.3188 26.4128L29.7446 29.6768C29.4151 29.5035 29.0756 29.3485 28.7562 29.2027C28.3568 29.0203 27.9874 28.8471 27.6579 28.6556C24.4032 26.7683 21.448 24.3067 18.6226 21.143C17.1949 19.4927 16.2364 18.1069 15.5675 16.6937C16.506 15.9188 17.3846 15.1073 18.2332 14.3141C18.5327 14.0315 18.8422 13.7489 19.1517 13.4662C20.23 12.4816 20.809 11.3419 20.809 10.184C20.809 9.02611 20.24 7.88645 19.1517 6.90178L16.1765 4.18483C15.8271 3.86573 15.4976 3.55574 15.1582 3.23663C14.4993 2.61666 13.8104 1.97845 13.1315 1.40406C12.1031 0.483216 10.8951 0 9.61716 0C8.34922 0 7.13119 0.483216 6.06292 1.41318L2.32897 4.82304C0.971166 6.06299 0.202411 7.56734 0.04267 9.30874C-0.147023 11.4878 0.292266 13.8036 1.43042 16.6026C3.17759 20.9333 5.81332 24.954 9.72698 29.2482ZM2.47872 9.50021C2.59853 8.28761 3.10771 7.27559 4.06615 6.40033L7.78014 3.0087C8.3592 2.49814 8.99816 2.23373 9.61716 2.23373C10.2262 2.23373 10.8452 2.49814 11.4143 3.02694C12.0832 3.59221 12.7121 4.18483 13.3911 4.81392C13.7305 5.13303 14.0799 5.45213 14.4294 5.78036L17.4045 8.49731C18.0235 9.06258 18.343 9.63697 18.343 10.2022C18.343 10.7675 18.0235 11.3419 17.4045 11.9072C17.0951 12.1898 16.7856 12.4816 16.4761 12.7642C15.5476 13.6212 14.679 14.4327 13.7205 15.2076C13.7005 15.2259 13.6906 15.235 13.6706 15.2532C12.8419 16.0099 12.9717 16.7302 13.1714 17.2772C13.1814 17.3046 13.1914 17.3228 13.2014 17.3502C13.9701 19.0369 15.0384 20.6415 16.7057 22.5562C19.7008 25.9295 22.8557 28.5462 26.3301 30.5611C26.7594 30.8164 27.2187 31.017 27.648 31.2176C28.0473 31.3999 28.4167 31.5731 28.7462 31.7646C28.7861 31.7828 28.8161 31.8011 28.856 31.8193C29.1855 31.9743 29.5049 32.0472 29.8244 32.0472C30.6231 32.0472 31.1423 31.5823 31.312 31.4273L35.046 28.0174C35.625 27.4886 36.254 27.206 36.873 27.206C37.6318 27.206 38.2508 27.6345 38.6402 28.0174L44.6604 33.506C45.8585 34.6001 45.8485 35.7853 44.6305 36.9432C44.2111 37.3535 43.7718 37.7455 43.3026 38.1558C42.6037 38.7758 41.8749 39.414 41.216 40.1343C40.0678 41.2648 38.7001 41.7936 36.9329 41.7936C36.7632 41.7936 36.5835 41.7845 36.4138 41.7754C33.1391 41.5839 30.094 40.4169 27.8077 39.4231C21.5978 36.6788 16.1466 32.7857 11.6239 27.8442C7.89994 23.7505 5.394 19.9395 3.73669 15.855C2.70835 13.3477 2.31898 11.3328 2.47872 9.50021Z" fill="black"/>
<path d="M9.72698 29.2482L-30.9235 66.296L-30.8761 66.348L-30.8286 66.3998L9.72698 29.2482ZM26.7294 41.4107L4.46768 91.704L4.67608 91.7962L4.88524 91.8867L26.7294 41.4107ZM36.244 43.9818L33.0005 98.886L33.531 98.9174L34.062 98.9385L36.244 43.9818ZM43.033 41.6022L5.94465 0.988713L5.10916 1.75168L4.30576 2.54837L43.033 41.6022ZM43.073 41.5566L2.34044 4.59901L-2.03917 9.42597L-5.16929 15.1429L43.073 41.5566ZM44.9999 39.7331L8.79746 -1.67204L8.65298 -1.54571L8.50938 -1.41838L44.9999 39.7331ZM46.4076 38.4567L8.48886 -1.38263L8.47718 -1.37151L8.4655 -1.36039L46.4076 38.4567ZM46.3876 31.9014L83.476 -8.71208V-8.71208L46.3876 31.9014ZM40.3873 26.4219L2.52672 66.3164L2.90938 66.6796L3.29894 67.0353L40.3873 26.4219ZM33.3188 26.4128L-3.76962 -14.2007L-3.76962 -14.2007L33.3188 26.4128ZM29.7446 29.6768L4.14876 78.3579L38.3226 96.326L66.8329 70.2902L29.7446 29.6768ZM28.7562 29.2027L5.91174 79.234L28.7562 29.2027ZM27.6579 28.6556L55.2926 -18.8978L55.27 -18.9109L55.2473 -18.9241L27.6579 28.6556ZM18.6226 21.143L-22.9716 57.128L-22.6881 57.4557L-22.3995 57.7789L18.6226 21.143ZM15.5675 16.6937L-19.453 -25.7157L-52.4567 1.53778L-34.1446 40.2246L15.5675 16.6937ZM18.2332 14.3141L55.7899 54.4949L55.8854 54.4056L55.9806 54.3158L18.2332 14.3141ZM19.1517 13.4662L-17.9367 -27.1472L19.1517 13.4662ZM19.1517 6.90178L-17.9367 47.5152L-17.8435 47.6003L-17.75 47.6849L19.1517 6.90178ZM16.1765 4.18483L53.2649 -36.4286L53.2649 -36.4286L16.1765 4.18483ZM15.1582 3.23663L-22.5305 43.2936L-22.5219 43.3017L-22.5132 43.3099L15.1582 3.23663ZM13.1315 1.40406L-23.559 42.3773L-22.9831 42.893L-22.393 43.3923L13.1315 1.40406ZM6.06292 1.41318L-30.0497 -40.0703L-30.5428 -39.6411L-31.0255 -39.2003L6.06292 1.41318ZM2.32897 4.82304L39.4174 45.4365L39.4174 45.4365L2.32897 4.82304ZM0.04267 9.30874L-54.7274 4.28461L-54.739 4.41169L-54.7501 4.53883L0.04267 9.30874ZM1.43042 16.6026L52.436 -3.97498L52.4077 -4.0449L52.3793 -4.11474L1.43042 16.6026ZM2.47872 9.50021L-52.2548 4.09248L-52.286 4.40812L-52.3135 4.72409L2.47872 9.50021ZM4.06615 6.40033L-33.0222 -34.2131L4.06615 6.40033ZM7.78014 3.0087L-28.5943 -38.2454L-28.954 -37.9282L-29.3083 -37.6047L7.78014 3.0087ZM11.4143 3.02694L-26.0247 43.3174L-25.0754 44.1995L-24.0857 45.0359L11.4143 3.02694ZM13.3911 4.81392L51.0625 -35.2593L50.9186 -35.3945L50.7739 -35.5287L13.3911 4.81392ZM14.4294 5.78036L-23.2257 45.869L-22.9442 46.1334L-22.659 46.3938L14.4294 5.78036ZM17.4045 8.49731L54.4929 -32.1161L17.4045 8.49731ZM17.4045 11.9072L54.4929 52.5206L17.4045 11.9072ZM16.4761 12.7642L-20.6123 -27.8492L-20.7205 -27.7504L-20.8282 -27.6511L16.4761 12.7642ZM13.7205 15.2076L-20.8607 -27.5609L-22.1467 -26.521L-23.3679 -25.4058L13.7205 15.2076ZM13.6706 15.2532L-23.4178 -25.3602L13.6706 15.2532ZM13.1714 17.2772L64.8371 -1.58151V-1.58151L13.1714 17.2772ZM13.2014 17.3502L-38.4644 36.2089L-37.7317 38.2161L-36.8456 40.1603L13.2014 17.3502ZM16.7057 22.5562L-24.7718 58.6756L-24.5981 58.8751L-24.4226 59.0728L16.7057 22.5562ZM26.3301 30.5611L54.441 -16.7123L54.1825 -16.866L53.9224 -17.0169L26.3301 30.5611ZM27.648 31.2176L4.36657 81.0471L4.58461 81.1489L4.80354 81.2489L27.648 31.2176ZM28.7462 31.7646L1.11147 79.318L3.44579 80.6745L5.90176 81.7959L28.7462 31.7646ZM28.856 31.8193L52.2688 -17.9486L51.9853 -18.0819L51.7004 -18.212L28.856 31.8193ZM31.312 31.4273L68.4004 72.0407L68.4004 72.0407L31.312 31.4273ZM35.046 28.0174L-2.04241 -12.596L-2.04243 -12.596L35.046 28.0174ZM38.6402 28.0174L0.0751012 67.2314L0.816695 67.9607L1.58533 68.6615L38.6402 28.0174ZM44.6604 33.506L81.7488 -7.10743L81.732 -7.12275L81.7152 -7.13806L44.6604 33.506ZM44.6305 36.9432L6.73601 -2.91918L6.44892 -2.64627L6.1658 -2.36925L44.6305 36.9432ZM43.3026 38.1558L7.10021 -3.24933L6.95134 -3.11917L6.80342 -2.98794L43.3026 38.1558ZM41.216 40.1343L79.8054 79.3243L80.8277 78.3176L81.7962 77.259L41.216 40.1343ZM36.4138 41.7754L33.2035 96.6816L33.3335 96.6892L33.4635 96.6962L36.4138 41.7754ZM27.8077 39.4231L5.57615 89.7298L5.72915 89.7974L5.88256 89.8641L27.8077 39.4231ZM11.6239 27.8442L-29.0606 64.8546L-29.0047 64.916L-28.9486 64.9774L11.6239 27.8442ZM3.73669 15.855L54.7012 -4.82405L54.6623 -4.91997L54.623 -5.01575L3.73669 15.855ZM-30.8286 66.3998C-20.8383 77.3056 -8.84771 85.8101 4.46768 91.704L48.9912 -8.88258C49.0725 -8.84661 49.2786 -8.744 49.5509 -8.54925C49.8251 -8.35321 50.0774 -8.12738 50.2826 -7.90337L-30.8286 66.3998ZM4.88524 91.8867C8.70393 93.5393 19.3126 98.0774 33.0005 98.886L39.4875 -10.9225C42.8937 -10.7213 45.434 -10.0824 46.818 -9.66765C48.1776 -9.26023 48.957 -8.89944 48.5736 -9.06535L4.88524 91.8867ZM34.062 98.9385C34.083 98.9393 34.486 98.9559 34.9099 98.9688C35.3865 98.9833 36.0854 99 36.9229 99V-11C37.5308 -11 38.0051 -10.9879 38.2571 -10.9802C38.3822 -10.9764 38.4709 -10.9731 38.4945 -10.9722C38.5039 -10.9718 38.5183 -10.9713 38.4261 -10.9749L34.062 98.9385ZM36.9229 99C52.5748 99 68.9174 93.3915 81.7603 80.6559L4.30576 2.54837C8.48229 -1.59325 13.8269 -5.28796 20.205 -7.79133C26.4775 -10.2533 32.3072 -11 36.9229 -11V99ZM80.1214 82.2156C80.1214 82.2156 80.1216 82.2154 80.1218 82.2152C80.1221 82.215 80.1224 82.2147 80.1228 82.2143C80.1237 82.2135 80.125 82.2123 80.1266 82.2108C80.1298 82.2079 80.1348 82.2034 80.1409 82.1978C80.153 82.1868 80.1714 82.1699 80.1937 82.1494C80.2385 82.1084 80.3037 82.0485 80.3823 81.9759C80.5392 81.8308 80.7598 81.625 81.0213 81.3754C81.5283 80.8913 82.2802 80.1556 83.1548 79.2237C84.4336 77.8614 88.0542 73.9262 91.3152 67.9703L-5.16929 15.1429C-3.39463 11.9016 -1.61327 9.42832 -0.363844 7.8206C0.931083 6.15433 2.10421 4.84414 2.95117 3.94181C4.55589 2.23217 5.97993 0.956492 5.94465 0.988713L80.1214 82.2156ZM83.8055 78.5141C82.6695 79.7662 81.7509 80.6314 81.3927 80.9636C81.2051 81.1375 81.0898 81.2399 81.1195 81.2134C81.1949 81.1461 81.2047 81.1379 81.4903 80.8846L8.50938 -1.41838C8.43158 -1.34939 7.49171 -0.523403 6.59777 0.305557C5.59312 1.23718 4.05553 2.70873 2.34044 4.59901L83.8055 78.5141ZM81.2022 81.1383C81.9471 80.487 83.0831 79.4807 84.3496 78.2738L8.4655 -1.36039C8.65629 -1.54219 8.78738 -1.6614 8.8346 -1.70406C8.88177 -1.74668 8.87903 -1.74336 8.79746 -1.67204L81.2022 81.1383ZM84.3263 78.296C93.8219 69.2582 103.042 54.4168 103 35.0347C102.957 15.4919 93.515 0.45564 83.476 -8.71208L9.29921 72.5148C1.40668 65.3073 -6.9621 52.5367 -6.99988 35.2754C-7.0373 18.175 1.1198 5.63117 8.48886 -1.38263L84.3263 78.296ZM83.476 -8.71208L77.4757 -14.1916L3.29894 67.0353L9.29922 72.5148L83.476 -8.71208ZM78.2479 -13.4727C68.0642 -23.1372 53.6293 -30.0551 36.873 -30.0551V79.9449C22.6726 79.9449 10.6738 74.0481 2.52672 66.3164L78.2479 -13.4727ZM36.873 -30.0551C20.1717 -30.0551 6.08508 -23.2 -3.76962 -14.2007L70.4072 67.0262C62.6491 74.1109 51.0185 79.9449 36.873 79.9449V-30.0551ZM-3.76962 -14.2007L-7.34383 -10.9367L66.8329 70.2902L70.4072 67.0262L-3.76962 -14.2007ZM55.3404 -19.0044C53.4339 -20.0068 51.7056 -20.7807 51.6006 -20.8287L5.91174 79.234C6.12373 79.3308 5.93936 79.2475 5.6983 79.1333C5.42546 79.0041 4.8669 78.7355 4.14876 78.3579L55.3404 -19.0044ZM51.6006 -20.8287C51.4931 -20.8778 51.8758 -20.7052 52.4123 -20.4419C52.9707 -20.1679 54.0071 -19.6448 55.2926 -18.8978L0.0232338 76.209C2.96109 77.9163 5.59236 79.0881 5.91174 79.234L51.6006 -20.8287ZM55.2473 -18.9241C57.6553 -17.5278 59.1201 -16.0802 59.6447 -15.4929L-22.3995 57.7789C-16.2241 64.6936 -8.84883 71.0645 0.0685324 76.2353L55.2473 -18.9241ZM60.2168 -14.8421C60.7334 -14.2449 63.1036 -11.4344 65.2797 -6.8371L-34.1446 40.2246C-30.6307 47.6482 -26.3436 53.2304 -22.9716 57.128L60.2168 -14.8421ZM50.588 59.1032C52.9424 57.1591 54.8913 55.3348 55.7899 54.4949L-19.3235 -25.8667C-19.4996 -25.7021 -19.6195 -25.5905 -19.7149 -25.5025C-19.8075 -25.417 -19.8534 -25.3755 -19.8668 -25.3634C-19.8793 -25.3521 -19.8478 -25.3807 -19.7807 -25.4389C-19.7131 -25.4975 -19.6021 -25.5926 -19.453 -25.7157L50.588 59.1032ZM55.9806 54.3158C55.9142 54.3784 55.8908 54.3996 55.9406 54.3537C55.964 54.3322 55.9978 54.3012 56.049 54.2543C56.1024 54.2054 56.1593 54.1534 56.2401 54.0797L-17.9367 -27.1472C-18.1865 -26.9191 -18.8318 -26.3315 -19.5142 -25.6876L55.9806 54.3158ZM56.2401 54.0797C65.4139 45.7021 75.809 30.7766 75.809 10.184H-34.191C-34.191 -8.09278 -24.954 -20.739 -17.9367 -27.1472L56.2401 54.0797ZM75.809 10.184C75.809 -10.2117 65.605 -25.2388 56.0534 -33.8814L-17.75 47.6849C-25.1251 41.0117 -34.191 28.2639 -34.191 10.184H75.809ZM56.2401 -33.7117L53.2649 -36.4286L-20.9119 44.7983L-17.9367 47.5152L56.2401 -33.7117ZM53.2649 -36.4286C53.2813 -36.4136 53.2659 -36.4275 53.1947 -36.494C53.1109 -36.5722 53.0197 -36.6579 52.8296 -36.8366L-22.5132 43.3099C-22.2314 43.5748 -21.6067 44.1637 -20.9118 44.7983L53.2649 -36.4286ZM52.8469 -36.8203C52.0939 -37.5288 50.5149 -39.0114 48.6559 -40.5842L-22.393 43.3923C-22.5531 43.2568 -22.6725 43.1526 -22.7452 43.0885C-22.8183 43.024 -22.8592 42.9868 -22.8615 42.9846C-22.8639 42.9825 -22.8402 43.004 -22.7822 43.0579C-22.7235 43.1124 -22.6443 43.1865 -22.5305 43.2936L52.8469 -36.8203ZM49.8219 -39.5692C39.6043 -48.7188 25.593 -55 9.61716 -55V55C-3.80284 55 -15.3981 49.6852 -23.559 42.3773L49.8219 -39.5692ZM9.61716 -55C-6.45631 -55 -20.1881 -48.6551 -30.0497 -40.0703L42.1756 42.8966C34.4505 49.6215 23.1547 55 9.61716 55V-55ZM-31.0255 -39.2003L-34.7594 -35.7904L39.4174 45.4365L43.1513 42.0266L-31.0255 -39.2003ZM-34.7594 -35.7904C-45.621 -25.8715 -53.2407 -11.9223 -54.7274 4.28461L54.8127 14.3329C53.6455 27.0569 47.5633 37.9975 39.4174 45.4365L-34.7594 -35.7904ZM-54.7501 4.53883C-55.9255 18.0405 -52.7676 29.3295 -49.5185 37.3199L52.3793 -4.11474C53.3522 -1.72236 55.6314 4.93503 54.8354 14.0787L-54.7501 4.53883ZM-49.5751 37.1801C-44.8738 48.8333 -38.2206 58.2893 -30.9235 66.296L50.3774 -7.79957C50.032 -8.17858 50.2672 -7.97135 50.7553 -7.22734C51.2798 -6.42773 51.8951 -5.31558 52.436 -3.97498L-49.5751 37.1801ZM57.2122 14.9079C56.6523 20.5756 55.0521 26.7354 51.9561 32.8073C48.8815 38.8373 44.9713 43.5283 41.1545 47.0138L-33.0222 -34.2131C-43.6011 -24.5524 -50.7471 -11.1668 -52.2548 4.09248L57.2122 14.9079ZM41.1545 47.0138L44.8685 43.6221L-29.3083 -37.6047L-33.0222 -34.2131L41.1545 47.0138ZM44.1545 44.2628C36.9127 50.6481 25.0887 57.2337 9.61716 57.2337V-52.7663C-7.09234 -52.7663 -20.1943 -45.6518 -28.5943 -38.2454L44.1545 44.2628ZM9.61716 57.2337C-6.5289 57.2337 -18.7333 50.0928 -26.0247 43.3174L48.8532 -37.2636C40.4236 -45.0965 26.9813 -52.7663 9.61716 -52.7663V57.2337ZM-24.0857 45.0359C-24.2905 44.8629 -24.4483 44.7248 -24.5486 44.636C-24.647 44.5489 -24.7005 44.4998 -24.6895 44.5099C-24.6848 44.5142 -24.6685 44.5291 -24.6364 44.5587C-24.6039 44.5887 -24.5612 44.6281 -24.5015 44.6835C-24.4393 44.7412 -24.3748 44.801 -24.286 44.8835C-24.2035 44.9601 -24.1001 45.0561 -23.9918 45.1565L50.7739 -35.5287C50.6045 -35.6856 48.7989 -37.3893 46.9142 -38.9821L-24.0857 45.0359ZM-24.2804 44.8872C-23.9395 45.2076 -23.6199 45.5034 -23.4701 45.6421C-23.3767 45.7286 -23.3249 45.7766 -23.2784 45.8199C-23.236 45.8593 -23.2223 45.8721 -23.2257 45.869L52.0844 -34.3082C51.7474 -34.6248 51.4321 -34.9166 51.283 -35.0547C51.0858 -35.2373 51.0611 -35.2606 51.0625 -35.2593L-24.2804 44.8872ZM-22.659 46.3938L-19.6838 49.1107L54.4929 -32.1161L51.5178 -34.8331L-22.659 46.3938ZM-19.6838 49.1107C-24.6887 44.5403 -36.657 31.4904 -36.657 10.2022H73.343C73.343 -12.2164 60.7358 -26.4151 54.4929 -32.1161L-19.6838 49.1107ZM-36.657 10.2022C-36.657 -11.0859 -24.6887 -24.1358 -19.6838 -28.7063L54.4929 52.5206C60.7358 46.8196 73.343 32.6209 73.343 10.2022H-36.657ZM-19.6838 -28.7063C-20.0278 -28.3922 -20.3436 -28.0987 -20.4707 -27.9808C-20.6531 -27.8115 -20.6468 -27.8178 -20.6123 -27.8492L53.5644 53.3776C53.9084 53.0636 54.2242 52.7701 54.3513 52.6521C54.5337 52.4829 54.5274 52.4892 54.4929 52.5206L-19.6838 -28.7063ZM-20.8282 -27.6511C-20.8951 -27.5893 -20.9598 -27.5295 -21.0184 -27.4754C-21.0794 -27.4191 -21.131 -27.3714 -21.1836 -27.3228C-21.2878 -27.2266 -21.3679 -27.1527 -21.4382 -27.0881C-21.5072 -27.0246 -21.5557 -26.9802 -21.5906 -26.9484C-21.6076 -26.933 -21.62 -26.9217 -21.6285 -26.9141C-21.6369 -26.9064 -21.6409 -26.9029 -21.6408 -26.9029C-21.6408 -26.903 -21.6363 -26.907 -21.6278 -26.9145C-21.6194 -26.9221 -21.6065 -26.9334 -21.5898 -26.9482C-21.5563 -26.9776 -21.5056 -27.022 -21.4398 -27.0786C-21.308 -27.192 -21.1116 -27.3579 -20.8607 -27.5609L48.3017 57.9761C50.9651 55.8225 53.3005 53.6223 53.7803 53.1794L-20.8282 -27.6511ZM-23.3679 -25.4058C-23.3782 -25.3964 -23.3859 -25.3893 -23.3934 -25.3825C-23.4009 -25.3756 -23.4081 -25.369 -23.4178 -25.3602L50.759 55.8666C50.7693 55.8572 50.7771 55.8502 50.7846 55.8433C50.792 55.8365 50.7993 55.8299 50.8089 55.8211L-23.3679 -25.4058ZM-23.4178 -25.3602C-31.9204 -17.5956 -39.461 -5.94092 -41.473 9.00665C-43.2754 22.3964 -39.7513 32.6925 -38.4943 36.136L64.8371 -1.58151C65.8944 1.315 69.2538 10.9774 67.5438 23.6811C65.6241 37.9426 58.4329 48.8588 50.759 55.8666L-23.4178 -25.3602ZM-38.4943 36.136C-38.3234 36.6043 -38.1576 37.0387 -38.001 37.4365C-37.845 37.8328 -37.7025 38.1814 -37.5814 38.4717C-37.5211 38.6161 -37.4663 38.7459 -37.4185 38.858C-37.3708 38.9699 -37.3293 39.0664 -37.2962 39.143C-37.2634 39.2188 -37.2365 39.2804 -37.2197 39.3188C-37.2112 39.3384 -37.2042 39.3543 -37.1999 39.3642C-37.1977 39.3693 -37.1958 39.3735 -37.1947 39.3761C-37.1936 39.3786 -37.1926 39.3808 -37.1926 39.3808C-37.1918 39.3827 -37.1946 39.3762 -37.198 39.3685C-37.2017 39.36 -37.2081 39.3455 -37.216 39.3274C-37.2315 39.2918 -37.2571 39.233 -37.2887 39.1601C-37.3205 39.0865 -37.3609 38.9928 -37.4072 38.8839C-37.4538 38.7747 -37.5074 38.6479 -37.5664 38.5064C-37.685 38.2221 -37.825 37.8797 -37.9786 37.4897C-38.1327 37.0983 -38.2959 36.6704 -38.4644 36.2089L64.8671 -1.50857C64.6962 -1.97683 64.5304 -2.41131 64.3738 -2.80907C64.2178 -3.20541 64.0752 -3.55393 63.9541 -3.84422C63.8939 -3.98869 63.839 -4.11843 63.7912 -4.23062C63.7436 -4.34242 63.702 -4.439 63.6689 -4.51555C63.6361 -4.59133 63.6093 -4.65295 63.5925 -4.69139C63.584 -4.71092 63.577 -4.72684 63.5726 -4.7368C63.5704 -4.74187 63.5686 -4.74604 63.5674 -4.74871C63.5663 -4.75118 63.5654 -4.75334 63.5654 -4.7534C63.5645 -4.75531 63.5674 -4.7488 63.5708 -4.74108C63.5745 -4.73254 63.5808 -4.71805 63.5887 -4.69995C63.6043 -4.66437 63.6299 -4.60562 63.6614 -4.53271C63.6933 -4.45905 63.7336 -4.36538 63.78 -4.2565C63.8266 -4.14724 63.8802 -4.02046 63.9392 -3.87899C64.0578 -3.59468 64.1978 -3.25228 64.3513 -2.86228C64.5054 -2.47086 64.6687 -2.04293 64.8371 -1.58151L-38.4943 36.136ZM-36.8456 40.1603C-33.3256 47.8835 -28.9256 53.9057 -24.7718 58.6756L58.1832 -13.5633C58.5127 -13.185 59.3088 -12.2359 60.2795 -10.7901C61.3015 -9.26777 62.3302 -7.47434 63.2483 -5.45997L-36.8456 40.1603ZM-24.4226 59.0728C-17.9551 66.357 -10.3304 72.8801 -1.26218 78.1391L53.9224 -17.0169C54.9053 -16.4468 55.7724 -15.829 56.494 -15.2293C57.2036 -14.6395 57.6452 -14.1731 57.8339 -13.9605L-24.4226 59.0728ZM-1.78081 77.8346C0.333124 79.0916 2.12086 79.9787 3.09815 80.45C3.5993 80.6917 4.01742 80.8857 4.21015 80.9749C4.26239 80.9991 4.30918 81.0208 4.34138 81.0356C4.38186 81.0543 4.3919 81.059 4.41198 81.0682C4.44515 81.0836 4.41743 81.0708 4.36657 81.0471L50.9293 -18.6119C50.7711 -18.6858 50.6352 -18.7487 50.5594 -18.7837C50.445 -18.8366 50.4672 -18.8263 50.4324 -18.8424C50.4049 -18.8551 50.6009 -18.7648 50.8799 -18.6303C51.4129 -18.3732 52.7564 -17.7141 54.441 -16.7123L-1.78081 77.8346ZM4.80354 81.2489C4.91105 81.298 4.52831 81.1254 3.99185 80.8621C3.43343 80.5881 2.39701 80.065 1.11147 79.318L56.3809 -15.7888C53.443 -17.496 50.8118 -18.6679 50.4924 -18.8137L4.80354 81.2489ZM5.90176 81.7959C5.5117 81.6178 5.1561 81.4499 4.83905 81.2967C4.52328 81.1442 4.24916 81.008 4.02704 80.8961C3.80769 80.7856 3.63068 80.6945 3.52063 80.6376C3.46513 80.6089 3.42066 80.5857 3.3943 80.572C3.37049 80.5596 3.35041 80.5491 3.35628 80.5522C3.35644 80.5523 3.36311 80.5558 3.37071 80.5597C3.37894 80.564 3.39178 80.5707 3.40741 80.5789C3.43815 80.5949 3.48701 80.6203 3.54691 80.6513C3.66578 80.7127 3.85169 80.8084 4.08008 80.9234C4.31124 81.0399 4.59457 81.1807 4.91978 81.3378C5.24627 81.4955 5.61154 81.668 6.01158 81.8506L51.7004 -18.212C52.0905 -18.0339 52.4461 -17.866 52.7631 -17.7128C53.0789 -17.5603 53.353 -17.4241 53.5751 -17.3122C53.7945 -17.2017 53.9715 -17.1106 54.0816 -17.0537C54.137 -17.025 54.1815 -17.0018 54.2079 -16.9881C54.2317 -16.9757 54.2518 -16.9652 54.2459 -16.9683C54.2457 -16.9684 54.2391 -16.9719 54.2315 -16.9758C54.2232 -16.9801 54.2104 -16.9868 54.1948 -16.9949C54.164 -17.0109 54.1152 -17.0364 54.0553 -17.0673C53.9364 -17.1288 53.7505 -17.2245 53.5221 -17.3395C53.2909 -17.456 53.0076 -17.5968 52.6824 -17.7538C52.3559 -17.9115 51.9906 -18.0841 51.5906 -18.2667L5.90176 81.7959ZM5.44325 81.5872C12.4277 84.8729 20.7024 87.0472 29.8244 87.0472V-22.9528C38.3075 -22.9528 45.9433 -20.9243 52.2688 -17.9486L5.44325 81.5872ZM29.8244 87.0472C52.6043 87.0472 66.552 73.7287 68.4004 72.0407L-5.77637 -9.18617C-4.26738 -10.5642 8.64196 -22.9528 29.8244 -22.9528V87.0472ZM68.4004 72.0407L72.1344 68.6308L-2.04243 -12.596L-5.77639 -9.18615L68.4004 72.0407ZM72.1344 68.6308C65.6062 74.5924 53.5911 82.206 36.873 82.206V-27.794C18.9169 -27.794 5.64383 -19.6152 -2.04241 -12.596L72.1344 68.6308ZM36.873 82.206C16.8215 82.206 4.28712 71.3737 0.0751012 67.2314L77.2052 -11.1966C72.2144 -16.1048 58.4421 -27.794 36.873 -27.794V82.206ZM1.58533 68.6615L7.60558 74.1501L81.7152 -7.13806L75.695 -12.6267L1.58533 68.6615ZM7.57201 74.1194C1.25673 68.3523 -9.62238 55.0843 -9.44649 34.7255C-9.27533 14.915 1.29662 2.25167 6.73601 -2.91918L82.5249 76.8056C89.1823 70.4769 100.368 56.6419 100.549 35.6758C100.735 14.1614 89.2621 -0.246205 81.7488 -7.10743L7.57201 74.1194ZM6.1658 -2.36925C6.55499 -2.75004 6.85604 -3.02715 7.01147 -3.16829C7.15598 -3.29951 7.21951 -3.35364 7.10021 -3.24933L79.505 79.561C80.1537 78.9938 81.537 77.7802 83.0951 76.2557L6.1658 -2.36925ZM6.80342 -2.98794C6.70459 -2.90027 3.62015 -0.252628 0.63575 3.00955L81.7962 77.259C80.8 78.3479 80.005 79.0989 79.687 79.3945C79.5203 79.5494 79.4203 79.6384 79.4469 79.6146C79.5092 79.5589 79.5365 79.535 79.8018 79.2996L6.80342 -2.98794ZM2.6266 0.944225C6.97308 -3.33564 12.6062 -7.25254 19.4462 -9.90115C26.1378 -12.4923 32.2666 -13.2064 36.9329 -13.2064V96.7936C51.5666 96.7936 67.2991 91.6389 79.8054 79.3243L2.6266 0.944225ZM36.9329 -13.2064C37.7947 -13.2064 38.4682 -13.1839 38.824 -13.17C39.1708 -13.1564 39.431 -13.1418 39.364 -13.1454L33.4635 96.6962C33.5105 96.6987 35.0845 96.7936 36.9329 96.7936V-13.2064ZM39.624 -13.1308C43.3914 -12.9106 46.18 -12.1925 47.6434 -11.7505C49.1118 -11.3069 49.9848 -10.9083 49.7328 -11.0178L5.88256 89.8641C9.38824 91.3879 19.8144 95.8988 33.2035 96.6816L39.624 -13.1308ZM50.0392 -10.8835C50.2995 -10.7685 50.6637 -10.5749 51.0765 -10.2796C51.4909 -9.98327 51.8724 -9.64302 52.1964 -9.28901L-28.9486 64.9774C-19.1857 75.6445 -7.45111 83.9728 5.57615 89.7298L50.0392 -10.8835ZM52.3084 -9.16621C52.0243 -9.47859 52.3158 -9.19984 52.8556 -8.37925C53.4326 -7.50203 54.1059 -6.29121 54.7012 -4.82405L-47.2278 36.534C-42.6037 47.9302 -36.0867 57.131 -29.0606 64.8546L52.3084 -9.16621ZM54.623 -5.01575C55.5762 -2.69154 58.1307 4.41309 57.271 14.2763L-52.3135 4.72409C-53.4927 18.2525 -50.1595 29.3869 -47.1496 36.7257L54.623 -5.01575Z" fill="black" mask="url(#path-1-inside-1)"/>
</svg>
